Coordinates
version=1
nRows=7
nColumns=40
inDegrees=yes

Units are S.I. units (second, meters, Newtons, ...)
Angles are in degrees.

endheader
time	pelvis_tilt	pelvis_list	pelvis_rotation	pelvis_tx	pelvis_ty	pelvis_tz	hip_flexion_r	hip_adduction_r	hip_rotation_r	knee_angle_r	knee_angle_r_beta	ankle_angle_r	subtalar_angle_r	mtp_angle_r	hip_flexion_l	hip_adduction_l	hip_rotation_l	knee_angle_l	knee_angle_l_beta	ankle_angle_l	subtalar_angle_l	mtp_angle_l	lumbar_extension	lumbar_bending	lumbar_rotation	arm_flex_r	arm_add_r	arm_rot_r	elbow_flex_r	pro_sup_r	wrist_flex_r	wrist_dev_r	arm_flex_l	arm_add_l	arm_rot_l	elbow_flex_l	pro_sup_l	wrist_flex_l	wrist_dev_l
     42.21000000	     -2.02670357	     -4.56322468	      3.56527823	      1.07361375	      0.93351143	      0.48033066	     10.06255310	      2.54725281	    -17.21032758	     14.83592863	     14.83592863	      9.17355553	      2.08463808	     -7.21614803	     29.63983395	    -13.78836064	      0.73963642	     59.28044220	     59.28044220	      9.07473495	    -17.26897676	      9.25035877	     -9.84899900	      5.87837653	      3.11337404	     18.59151434	    -18.82015605	     -3.62047016	     59.58079701	     45.83838164	      0.00000000	      0.00000000	      5.97870396	     -7.72662974	     -9.30988251	     32.27032676	     45.50851340	      0.00000000	      0.00000000
     42.22350000	     -2.17833993	     -4.50279571	      3.87003622	      1.07222435	      0.93376755	      0.48081490	      9.60695855	      2.57299580	    -17.59740871	     14.25980104	     14.25980104	      9.21097692	      2.52253667	     -7.46344060	     30.46285866	    -13.71110067	      0.61544337	     56.83658098	     56.83658098	      9.09231403	    -17.33324500	      9.13864515	     -9.81358817	      5.84785005	      2.99710245	     20.18781972	    -18.84712214	     -3.64945750	     61.42969020	     45.77350822	      0.00000000	      0.00000000	      4.79620098	     -7.52713124	     -9.12472122	     31.12296435	     45.48228955	      0.00000000	      0.00000000
     42.23700000	     -2.30420491	     -4.42727683	      4.14998997	      1.07094797	      0.93399813	      0.48124333	      9.12074738	      2.61414660	    -17.84156475	     13.68134041	     13.68134041	      9.29784817	      2.74576196	     -7.56535488	     31.04977255	    -13.58914851	      0.40121525	     54.08562935	     54.08562935	      9.15706760	    -17.38578624	      9.14953934	     -9.79576622	      5.79267039	      3.01409527	     21.73009006	    -18.97344250	     -3.74383114	     63.18664831	     45.71921667	      0.00000000	      0.00000000	      3.59091264	     -7.30808984	     -8.94213772	     30.27080413	     45.44812241	      0.00000000	      0.00000000
     42.25050000	     -2.46244987	     -4.40229579	      4.41302326	      1.06966556	      0.93408800	      0.48162557	      8.67736622	      2.69603874	    -18.13902025	     13.10002056	     13.10002056	      9.34253602	      3.07836816	     -7.78903087	     31.53982860	    -13.49197931	      0.19585824	     51.11232164	     51.11232164	      9.08495422	    -17.30324665	      8.97777593	     -9.75484010	      5.80236034	      3.15973543	     23.04684761	    -19.25494258	     -3.75093125	     65.44675666	     45.64217406	      0.00000000	      0.00000000	      2.49206827	     -7.07984239	     -8.59543980	     29.40627104	     45.39681051	      0.00000000	      0.00000000
     42.26400000	     -2.57781285	     -4.33220637	      4.66429023	      1.06841342	      0.93419808	      0.48185466	      8.24428515	      2.72472907	    -18.31489380	     12.62857944	     12.62857944	      9.44388023	      3.22307292	     -7.89118022	     31.79508713	    -13.28110808	     -0.00417014	     47.86241303	     47.86241303	      9.07208530	    -17.14299914	      9.18640591	     -9.79120428	      5.74751844	      3.25472165	     24.47976880	    -19.40179041	     -3.88197247	     67.13425997	     45.59380704	      0.00000000	      0.00000000	      1.37405085	     -6.86733483	     -8.35089646	     28.69771097	     45.35059480	      0.00000000	      0.00000000
     42.27750000	     -2.74793717	     -4.29725489	      4.86853839	      1.06715358	      0.93414104	      0.48204453	      7.90122381	      2.77780436	    -18.47109946	     12.19767766	     12.19767766	      9.55274611	      3.36687308	     -7.99570111	     31.99860642	    -13.09543680	     -0.22555156	     44.45810189	     44.45810189	      9.03704589	    -16.78282425	      9.45144817	     -9.74810437	      5.70662618	      3.38308423	     25.88104826	    -19.54477122	     -3.99854818	     68.75450205	     45.54821532	      0.00000000	      0.00000000	      0.31039131	     -6.67000411	     -8.12394320	     28.08959241	     45.30456617	      0.00000000	      0.00000000
     42.29100000	     -3.02044340	     -4.57018005	      5.11105055	      1.06580249	      0.93352771	      0.48210338	      7.86941340	      3.09398004	    -18.69496781	     12.08759637	     12.08759637	      9.73539451	      3.33761433	     -8.12422581	     32.43690468	    -13.15222307	     -0.19616390	     41.16581818	     41.16581818	      9.16666059	    -16.12278972	      9.81664575	     -9.50949757	      6.03227436	      3.79166655	     27.22659321	    -19.99631618	     -4.21530930	     69.58302837	     45.53429103	      0.00000000	      0.00000000	     -0.62998577	     -6.35876784	     -8.04376281	     27.70969905	     45.27751952	      0.00000000	      0.00000000
